<svg width="19" height="19" viewBox="0 0 19 19" fill="none" xmlns="http://www.w3.org/2000/svg">
<path d="M9.76784 6.95976C9.2306 6.90834 8.69009 7.0191 8.22032 7.27689C7.75055 7.53467 7.37448 7.92687 7.1436 8.3998C6.91272 8.87272 6.83831 9.40324 6.93057 9.91872C7.02283 10.4342 7.27724 10.9095 7.65897 11.2794C8.04071 11.6494 8.5311 11.8959 9.06301 11.9853C9.59492 12.0747 10.1423 12.0026 10.6303 11.7789C11.1183 11.5551 11.523 11.1907 11.789 10.7354C12.055 10.2801 12.1693 9.75631 12.1162 9.23566C12.0558 8.652 11.7889 8.10656 11.3609 7.69178C10.9329 7.277 10.3701 7.01838 9.76784 6.95976ZM16.0725 9.48505C16.0709 9.76088 16.0499 10.0363 16.0099 10.3094L17.8596 11.7154C17.9402 11.7801 17.9944 11.8703 18.0128 11.9702C18.0311 12.07 18.0124 12.1729 17.9599 12.2605L16.21 15.1946C16.1569 15.2815 16.0738 15.3473 15.9754 15.3806C15.8771 15.4139 15.7698 15.4125 15.6724 15.3766L13.8354 14.6597C13.7341 14.6207 13.6244 14.6065 13.5161 14.6186C13.4077 14.6308 13.3042 14.6687 13.2148 14.7291C12.9344 14.9162 12.6398 15.0824 12.3335 15.2263C12.2372 15.2717 12.1539 15.3393 12.091 15.4233C12.028 15.5072 11.9874 15.6049 11.9726 15.7077L11.6973 17.6065C11.6792 17.7068 11.6258 17.7979 11.5461 17.8642C11.4664 17.9305 11.3654 17.968 11.2603 17.9701H7.76064C7.65735 17.9684 7.55776 17.9326 7.47825 17.8687C7.39875 17.8047 7.34409 17.7165 7.32328 17.6184L7.04835 15.7224C7.03291 15.6185 6.99121 15.5199 6.92698 15.4353C6.86274 15.3508 6.77794 15.283 6.68013 15.2378C6.37419 15.0947 6.08058 14.9281 5.80214 14.7394C5.71298 14.6793 5.6098 14.6417 5.50188 14.6298C5.39396 14.618 5.2847 14.6324 5.18394 14.6716L3.34735 15.3881C3.25002 15.424 3.14274 15.4255 3.0444 15.3923C2.94605 15.3591 2.86296 15.2933 2.80976 15.2065L1.05991 12.2724C1.0073 12.1848 0.988497 12.0819 1.00685 11.982C1.02521 11.8822 1.07953 11.7919 1.16014 11.7272L2.72343 10.5378C2.80908 10.4719 2.87639 10.3863 2.91925 10.2888C2.96212 10.1913 2.97919 10.085 2.96891 9.97949C2.95418 9.81415 2.94518 9.6492 2.94518 9.48387C2.94518 9.31853 2.95377 9.15596 2.96891 8.99419C2.97807 8.88933 2.96016 8.7839 2.91681 8.68742C2.87346 8.59093 2.80602 8.50641 2.72057 8.44147L1.1581 7.25198C1.07879 7.18699 1.02562 7.09703 1.00789 6.99785C0.990158 6.89868 1.00901 6.79662 1.06113 6.70957L2.81098 3.77549C2.86412 3.68865 2.94719 3.62278 3.04554 3.58948C3.14389 3.55619 3.25121 3.55761 3.34858 3.59349L5.18558 4.31036C5.28688 4.34945 5.39661 4.36357 5.50492 4.35146C5.61324 4.33935 5.71677 4.30139 5.80623 4.24097C6.08658 4.05388 6.38118 3.88766 6.68749 3.74377C6.78379 3.69841 6.86709 3.63077 6.93002 3.54682C6.99296 3.46287 7.03359 3.36519 7.04835 3.26242L7.32369 1.36359C7.34178 1.26331 7.39524 1.17222 7.47493 1.10591C7.55463 1.03959 7.65562 1.00216 7.76064 1H11.2603C11.3636 1.00173 11.4632 1.03751 11.5427 1.10144C11.6222 1.16537 11.6769 1.25363 11.6977 1.35169L11.9726 3.24775C11.9881 3.35166 12.0298 3.45026 12.094 3.53479C12.1582 3.61932 12.243 3.68715 12.3409 3.73227C12.6468 3.87539 12.9404 4.04205 13.2189 4.23066C13.308 4.29078 13.4112 4.32845 13.5191 4.34029C13.627 4.35212 13.7363 4.33775 13.837 4.29847L15.6736 3.58199C15.771 3.54608 15.8782 3.5446 15.9766 3.57782C16.0749 3.61104 16.158 3.67682 16.2112 3.76359L17.9611 6.69767C18.0137 6.78534 18.0325 6.88825 18.0141 6.98808C17.9958 7.08792 17.9415 7.1782 17.8608 7.24286L16.2976 8.43235C16.2115 8.49803 16.1438 8.5835 16.1006 8.68101C16.0574 8.77851 16.04 8.88495 16.05 8.99062C16.0635 9.15477 16.0725 9.31972 16.0725 9.48505Z" stroke="black" stroke-width="1.5" stroke-linecap="round" stroke-linejoin="round"/>
</svg>
